<?xml version="1.0" encoding="UTF-8" standalone="no"?>
<!-- Uploaded to: SVG Repo, www.svgrepo.com, Generator: SVG Repo Mixer Tools -->

<svg
   fill="#000000"
   width="800px"
   height="800px"
   viewBox="0 0 24 24"
   role="img"
   version="1.1"
   id="svg1"
   sodipodi:docname="dblp-gray.svg"
   inkscape:version="1.3.2 (091e20e, 2023-11-25, custom)"
   xmlns:inkscape="http://www.inkscape.org/namespaces/inkscape"
   xmlns:sodipodi="http://sodipodi.sourceforge.net/DTD/sodipodi-0.dtd"
   xmlns="http://www.w3.org/2000/svg"
   xmlns:svg="http://www.w3.org/2000/svg">
  <defs
     id="defs1" />
  <sodipodi:namedview
     id="namedview1"
     pagecolor="#ffffff"
     bordercolor="#000000"
     borderopacity="0.25"
     inkscape:showpageshadow="2"
     inkscape:pageopacity="0.0"
     inkscape:pagecheckerboard="0"
     inkscape:deskcolor="#d1d1d1"
     inkscape:zoom="1.37375"
     inkscape:cx="400.36397"
     inkscape:cy="400"
     inkscape:window-width="1649"
     inkscape:window-height="1233"
     inkscape:window-x="4193"
     inkscape:window-y="503"
     inkscape:window-maximized="0"
     inkscape:current-layer="svg1" />
  <path
     d="M3.075.002c-.096.013-.154.092-.094.31L4.97 7.73 3.1 8.6s-.56.26-.4.85l2.45 9.159s.16.59.72.33l6.169-2.869 1.3-.61s.52-.24.42-.79l-.01-.06-1.13-4.22-.658-2.45-.672-2.49v-.04s-.16-.59-.84-1L3.5.141s-.265-.16-.425-.139zM18.324 5.03a.724.724 0 0 0-.193.06l-5.602 2.6.862 3.2 1.09 4.08.01.06c.05.47-.411.79-.411.79l-1.88.87.5 1.89.04.1c.07.17.28.6.81.91l6.95 4.269s.68.41.52-.17l-1.981-7.4 1.861-.86s.56-.26.4-.85L18.85 5.42s-.116-.452-.526-.39z"
     id="path1" />
  <path
     style="fill:#cccccc;stroke-width:0.727934"
     d="m 180.77673,631.5087 c -3.50177,-1.90352 -6.8912,-6.09819 -8.23671,-10.19356 C 171.94393,619.50083 153.0702,549.39035 130.5984,465.5141 97.529684,342.08478 89.728325,312.1098 89.676341,308.28025 c -0.105555,-7.7759 4.377348,-15.36516 11.756179,-19.90244 1.46416,-0.90032 16.64139,-8.12847 33.72717,-16.06255 18.18739,-8.44563 30.94617,-14.76899 30.77827,-15.25396 C 165.27816,255.1555 100.67027,13.644052 99.693251,9.4312495 97.619852,0.49092295 101.38868,-1.7324274 111.36676,2.5446781 c 4.27981,1.83454 238.36298,145.6558919 243.54761,149.6363319 7.7417,5.94359 15.52231,15.49108 18.96291,23.26913 0.75554,1.70803 2.32268,6.82493 3.48252,11.3709 1.15984,4.54597 9.00444,33.8159 17.43244,65.04429 31.0421,115.02062 63.26642,235.94279 63.72436,239.12648 0.8795,6.11434 -2.3491,14.51744 -7.29669,18.99117 -4.85495,4.38996 5.76004,-0.68365 -156.40644,74.75703 -95.01511,44.20152 -102.96318,47.76546 -107.00637,47.98209 -3.30754,0.17723 -5.01389,-0.11728 -7.03037,-1.2134 z"
     id="path2"
     transform="scale(0.03)" />
  <path
     style="fill:#cccccc;stroke-width:0.727934"
     d="m 690.87133,798.35472 c -1.96799,-0.65531 -18.01895,-10.05515 -35.66879,-20.88853 -17.64984,-10.83337 -71.85315,-44.09866 -120.45181,-73.92284 -80.50967,-49.40744 -88.91314,-54.74325 -94.57295,-60.04926 -6.7323,-6.31148 -11.89507,-13.51978 -14.92346,-20.83622 -2.50597,-6.05433 -18.18043,-65.52504 -17.44632,-66.19341 0.30978,-0.28205 14.32121,-6.84858 31.13649,-14.59231 28.18664,-12.98042 30.90221,-14.39015 34.78725,-18.0591 2.87989,-2.7197 5.06006,-5.69149 6.88642,-9.38687 4.95364,-10.02301 9.58024,9.51549 -50.70659,-214.13798 -6.41898,-23.81327 -11.43472,-43.51823 -11.14609,-43.7888 0.28863,-0.27057 42.94708,-20.17264 94.79657,-44.22682 64.67352,-30.00356 95.35601,-43.88349 97.72511,-44.20821 6.35403,-0.87092 11.58426,2.29131 15.05592,9.10289 0.73795,1.44791 19.93586,72.07751 42.66202,156.95467 45.59119,170.27294 43.19067,160.02421 39.30041,167.7889 -4.06111,8.10569 -5.79505,9.18281 -40.92781,25.42428 -17.53999,8.10854 -32.16141,15.00029 -32.49204,15.31499 -0.33062,0.31471 14.36051,56.38176 32.64698,124.59345 18.28648,68.21168 33.29766,125.43967 33.3582,127.17331 0.18024,5.16154 -2.81243,6.33772 -10.01951,3.93786 z"
     id="path3"
     transform="scale(0.03)" />
</svg>
