<?xml version="1.0" encoding="UTF-8" standalone="no"?>
<svg
   sodipodi:docname="scopus.svg"
   inkscape:version="1.3.2 (091e20e, 2023-11-25, custom)"
   id="svg8"
   version="1.1"
   viewBox="0 0 3072 3072"
   height="3072"
   width="3072"
   xmlns:inkscape="http://www.inkscape.org/namespaces/inkscape"
   xmlns:sodipodi="http://sodipodi.sourceforge.net/DTD/sodipodi-0.dtd"
   xmlns="http://www.w3.org/2000/svg"
   xmlns:svg="http://www.w3.org/2000/svg"
   xmlns:rdf="http://www.w3.org/1999/02/22-rdf-syntax-ns#"
   xmlns:cc="http://creativecommons.org/ns#"
   xmlns:dc="http://purl.org/dc/elements/1.1/">
  <title
     id="title861">Scopus</title>
  <defs
     id="defs2" />
  <sodipodi:namedview
     inkscape:window-maximized="0"
     inkscape:window-y="465"
     inkscape:window-x="4321"
     inkscape:window-height="1233"
     inkscape:window-width="1649"
     inkscape:guide-bbox="true"
     showguides="true"
     units="px"
     showgrid="false"
     inkscape:document-rotation="0"
     inkscape:current-layer="layer6"
     inkscape:document-units="px"
     inkscape:cy="1979.899"
     inkscape:cx="2062.8662"
     inkscape:zoom="0.13258252"
     inkscape:pageshadow="2"
     inkscape:pageopacity="0.0"
     borderopacity="1.0"
     bordercolor="#666666"
     pagecolor="#ffffff"
     id="base"
     scale-x="1"
     inkscape:showpageshadow="2"
     inkscape:pagecheckerboard="0"
     inkscape:deskcolor="#d1d1d1">
    <inkscape:grid
       empspacing="4"
       id="grid10"
       type="xygrid"
       originx="1280"
       originy="1280"
       spacingy="1"
       spacingx="1"
       units="px"
       visible="false" />
    <sodipodi:guide
       inkscape:color="rgb(0,0,255)"
       inkscape:locked="false"
       inkscape:label="baseline"
       id="guide863"
       orientation="0,1"
       position="1792,-192" />
  </sodipodi:namedview>
  <metadata
     id="metadata5">
    <rdf:RDF>
      <cc:Work
         rdf:about="">
        <dc:format>image/svg+xml</dc:format>
        <dc:type
           rdf:resource="http://purl.org/dc/dcmitype/StillImage" />
        <dc:title>Scopus</dc:title>
        <cc:license
           rdf:resource="http://scripts.sil.org/OFL" />
        <dc:subject>
          <rdf:Bag>
            <rdf:li>Scopus</rdf:li>
          </rdf:Bag>
        </dc:subject>
      </cc:Work>
      <cc:License
         rdf:about="http://scripts.sil.org/OFL">
        <cc:permits
           rdf:resource="http://scripts.sil.org/pub/OFL/Reproduction" />
        <cc:permits
           rdf:resource="http://scripts.sil.org/pub/OFL/Distribution" />
        <cc:permits
           rdf:resource="http://scripts.sil.org/pub/OFL/Embedding" />
        <cc:permits
           rdf:resource="http://scripts.sil.org/pub/OFL/DerivativeWorks" />
        <cc:requires
           rdf:resource="http://scripts.sil.org/pub/OFL/Notice" />
        <cc:requires
           rdf:resource="http://scripts.sil.org/pub/OFL/Attribution" />
        <cc:requires
           rdf:resource="http://scripts.sil.org/pub/OFL/ShareAlike" />
        <cc:requires
           rdf:resource="http://scripts.sil.org/pub/OFL/DerivativeRenaming" />
        <cc:requires
           rdf:resource="http://scripts.sil.org/pub/OFL/BundlingWhenSelling" />
      </cc:License>
    </rdf:RDF>
  </metadata>
  <g
     inkscape:label="icon"
     id="layer6"
     inkscape:groupmode="layer"
     transform="translate(1280,1280)">
    <path
       id="rect1609"
       style="opacity:0.999;fill-opacity:1;stroke:none;stroke-width:12.0944;stroke-linecap:square;fill:#cccccc"
       d="m -1280,-1280 v 3072 h 3072 v -3072 z m 934.52336,799.40624 c 177.77448,0 256.32136,20.68672 365.88296,66.16408 l -10.336,163.28904 c -117.82696,-70.284 -210.846,-90.93744 -345.21096,-90.93744 -155.0356,0 -233.6016,117.81272 -233.6016,225.30464 0,144.70024 138.50216,198.45624 268.73448,277.00776 167.4372,99.22336 341.08584,188.11288 341.08584,384.49224 0,258.3936 -221.1964,388.61712 -432.0468,388.61712 -150.90304,0 -260.452,-22.74024 -367.94528,-72.35144 l 24.82032,-163.31256 c 105.42512,64.0812 196.37736,95.10936 334.87496,95.10936 140.56576,0 258.37504,-95.09296 258.37504,-227.39064 0,-136.43128 -132.27912,-188.12472 -258.37504,-264.60936 C -568.72424,197.4316 -754.7656,106.47432 -754.7656,-104.37504 c 0,-210.84896 155.02904,-376.21872 409.28896,-376.21872 z m 1293.63296,0 c 208.78218,0 301.80578,24.81688 415.49998,78.56248 l -12.3985,155.03904 c -124.0315,-68.21728 -254.268,-95.08584 -423.77348,-95.08584 -268.73024,0 -498.18744,212.90352 -498.18744,558.11712 0,326.60952 233.59552,572.6016 527.1328,572.6016 134.36492,0 268.73212,-26.87032 394.82812,-95.086 l 12.3984,157.1016 c -111.6261,55.81264 -252.182,78.56248 -421.68748,78.56248 -336.9468,0 -698.69536,-248.07592 -698.69536,-700.78128 0,-396.8928 303.85576,-709.0312 704.88296,-709.0312 z" />
    <path
       style="fill:#cccccc;stroke-width:3.77124"
       d="M -1277.2263,255.7812 V -1277.2263 H 255.7812 1788.7888 V 255.7812 1788.7888 H 255.7812 -1277.2263 Z m 984.4407,669.48392 C -190.6752,905.6468 -98.08616,854.13064 -40.4596,784.87216 -11.56056,750.13976 21.06256,685.4728 31.44824,642.33296 35.6928,624.7024 40.2004,589.9056 41.46536,565.00656 46.10688,473.63768 21.10376,405.83432 -42.6072,337.0188 -88.39472,287.56288 -147.6996,246.5108 -309.90416,151.99048 -462.50592,63.06592 -497.1504,38.53752 -527.87184,-2.33096 c -74.3496,-98.90688 -34.58752,-253.4792 80.05616,-311.21288 46.60088,-23.46784 84.32008,-28.97936 166.73144,-24.36312 98.73488,5.53064 159.2648,21.3568 242.2992,63.35184 47.76536,24.15752 51.32152,25.3752 51.32152,17.57344 0,-9.66432 6.87656,-120.77552 8.89936,-143.79704 l 1.3576,-15.44984 -47.55488,-17.63808 c -99.39552,-36.86584 -154.4636,-45.44888 -292.6852,-45.61832 -85.67384,-0.1048 -106.90752,0.9896 -133.87888,6.90192 -155.41504,34.06808 -258.79704,131.018 -294.89104,276.54384 -10.69312,43.11344 -11.91824,130.23696 -2.32296,165.20648 17.52024,63.85168 43.32904,107.28792 93.1196,156.72 53.41416,53.02976 114.72672,94.82848 282.84264,192.82256 109.05008,63.56488 145.85632,88.77864 175.55872,120.2648 52.86104,56.03544 67.66944,123.59976 42.36776,193.30528 -12.74368,35.10824 -26.858,57.1948 -53.17,83.20208 -28.60816,28.2768 -56.0808,44.87496 -99.21272,59.9412 -29.80872,10.41248 -38.60216,11.70424 -89.89888,13.20568 -32.23464,0.94352 -71.43176,-0.2392 -90.50968,-2.73024 -74.07624,-9.67352 -154.08728,-36.84088 -216.55632,-73.53048 -15.55632,-9.13664 -29.3296,-15.48008 -30.60728,-14.09656 -2.79328,3.02464 -27.1832,162.82808 -25.1604,164.85104 5.0656,5.06552 84.52384,33.40752 120.25504,42.89384 110.06632,29.22144 253.40192,37.1788 346.72544,19.24864 z M 1093.619,923.2368 c 92.2242,-9.12272 170.7323,-27.74624 241.0468,-57.18048 l 32.2446,-13.49792 -1.9958,-13.66024 c -1.0976,-7.51312 -3.8816,-41.66168 -6.1864,-75.88568 -2.3049,-34.22392 -4.83,-64.268 -5.6113,-66.76448 -0.9379,-2.9968 -15.1849,1.95336 -41.9275,14.56784 -77.0956,36.36592 -171.0664,61.70808 -264.6712,71.37696 -53.76964,5.55416 -154.8054,2.41856 -192.99604,-5.9896 C 672.79864,736.41488 530.13336,606.25832 465.3864,422.09864 437.68088,343.29568 425.84192,238.99112 434.5476,150.4 c 25.36904,-258.16144 178.77504,-438.97144 410.02168,-483.26672 24.32904,-4.66024 51.9992,-6.32576 101.34816,-6.10056 145.59126,0.6648 266.38596,25.68728 368.82586,76.40296 24.2181,11.98992 37.4416,16.73376 38.3629,13.76264 0.7736,-2.49368 3.2748,-31.68688 5.5591,-64.87376 2.2844,-33.18688 5.0945,-66.60776 6.2446,-74.26864 2.0325,-13.53712 1.5791,-14.18696 -16.1176,-23.10536 -52.6586,-26.53776 -136.7849,-50.96208 -211.4817,-61.39928 -56.6944,-7.92168 -218.605,-11.2716 -268.70348,-5.55936 -334.18384,38.1036 -580.604,283.174 -622.07496,618.66768 -9.64144,77.9972 -2.734,190.89664 16.50328,269.74232 56.24584,230.52768 220.9996,406.18912 454.1572,484.22512 102.28856,34.23512 225.15504,43.57344 376.42636,28.60976 z"
       id="path1" />
    <path
       style="fill:#cccccc;stroke-width:3.77124"
       d="M -1277.2263,255.7812 V -1277.2263 H 255.7812 1788.7888 V 255.7812 1788.7888 H 255.7812 -1277.2263 Z m 992.75486,669.50664 C -180.43216,903.20352 -91.55256,851.58456 -35.014,780.4096 -9.96912,748.88112 21.28448,686.81536 32.12288,647.08384 38.80816,622.57688 40.14792,606.78544 40.3648,549.93768 40.6088,485.892 40.0504,480.35024 30.48504,451.88552 12.73448,399.06504 -24.75144,345.99432 -73.97856,303.99144 -115.616,268.46448 -174.30792,229.98056 -309.90416,149.29656 -447.9952,67.12816 -482.83976,43.57616 -511.03032,13.352 c -32.4968,-34.84104 -53.56552,-87.91832 -53.3668,-134.44416 0.1112,-26.09496 10.55224,-66.92016 24.17576,-94.53112 25.49808,-51.6772 67.69672,-88.1016 126.4416,-109.13984 31.74112,-11.36752 33.23528,-11.53112 100.10432,-10.96568 109.82784,0.9288 169.60904,14.39872 266.40856,60.02752 28.29648,13.33816 53.29568,24.25128 55.55392,24.25128 2.25816,0 4.83696,-3.8184 5.73064,-8.48528 3.78672,-19.77472 9.96456,-155.04072 7.20048,-157.65968 -1.6636,-1.5764 -25.08656,-10.83568 -52.05088,-20.57632 -92.63776,-33.46448 -160.50208,-43.32416 -298.2024,-43.32416 -84.81736,0 -118.386,3.93352 -167.54528,19.6328 -129.09272,41.22656 -214.53048,129.76896 -249.70336,258.77712 -6.50896,23.87392 -7.95608,40.50976 -8.25904,94.94248 -0.332,59.64384 0.4792,68.53776 8.42648,92.39528 19.96144,59.92392 40.14888,92.11352 88.31848,140.82664 53.46512,54.0684 100.83216,86.70672 283.78264,195.54112 150.896,89.76568 183.47424,116.45488 211.88496,173.58328 11.84792,23.82384 13.77384,31.64144 15.38536,62.45032 1.386,26.49752 0.2408,40.72448 -4.62368,57.45888 -19.3784,66.65944 -63.51224,117.40984 -128.022,147.2152 -45.53672,21.0392 -64.014,24.31224 -137.25096,24.31224 -101.12632,0 -171.12288,-17.20056 -268.43472,-65.9636 -27.44144,-13.75088 -50.39104,-24.47488 -50.9992,-23.83104 -1.72392,1.82512 -20.38472,119.112 -23.0804,145.06496 -2.38536,22.96528 -2.28912,23.27792 8.95296,29.09144 40.40096,20.89216 151.6732,50.17464 223.45264,58.80392 56.30248,6.76872 60.9756,6.96456 133.87888,5.61192 54.0272,-1.00248 80.69288,-3.24832 108.39992,-9.12968 z M 1040.1984,928.846 c 68.063,-4.51856 103.9862,-8.94 156.5062,-19.26288 59.8941,-11.77216 176.528,-51.84208 172.0414,-59.10528 -0.8876,-1.43688 -3.505,-28.91688 -5.8166,-61.06672 -6.2897,-87.48216 -7.3889,-94.28088 -15.2428,-94.28088 -3.6863,0 -23.4675,7.40816 -43.9582,16.46248 -54.3706,24.0252 -112.8575,42.65232 -174.906,55.7048 -46.9852,9.88384 -65.3762,11.78472 -130.64568,13.50352 C 902.00696,783.3336 862.41928,778.9044 802.64808,758.9248 611.47384,695.02144 480.57944,535.06112 441.84768,318.00664 c -3.1592,-17.70456 -5.0444,-57.90744 -5.03984,-107.48024 0.008,-67.7992 1.26192,-85.39688 8.72608,-122.28576 44.30104,-218.94184 176.26104,-363.84176 377.18832,-414.17528 37.72528,-9.4504 45.38968,-10.06264 123.1952,-9.84096 145.16956,0.4136 239.56716,18.64232 351.45036,67.86704 25.2892,11.1264 48.5016,20.22976 51.5832,20.22976 6.1849,0 7.3584,-7.546 13.6673,-87.88664 5.9049,-75.19512 8.2993,-67.40456 -25.4351,-82.7556 -67.0947,-30.53168 -158.5142,-53.01128 -242.3019,-59.5808 -28.0015,-2.19552 -95.03514,-3.33856 -148.96386,-2.54016 -109.41264,1.61984 -140.52416,6.03864 -221.06592,31.39832 -308.2556,97.0584 -504.41392,391.64456 -482.22448,724.19376 8.9912,134.7496 43.81016,245.55216 108.21192,344.35712 98.1816,150.62992 261.0308,259.97832 441.65424,296.55768 26.30632,5.32744 52.49656,9.00224 58.20056,8.16608 5.704,-0.83608 10.37088,-0.056 10.37088,1.72528 0,1.78504 11.06656,2.94104 24.5924,2.56896 13.52584,-0.372 25.68808,0.4192 27.0272,1.75816 3.544,3.544 62.48848,2.87952 127.51416,-1.43736 z"
       id="path2" />
    <path
       style="fill:#cccccc;stroke-width:7.54247"
       d="M 3.7712362,1534.8931 V 3.7712362 H 1534.8931 3066.015 V 1534.8931 3066.015 H 1534.8931 3.7712362 Z M 1006.9201,2201.9722 c 122.2866,-28.7357 231.2619,-110.1112 277.1915,-206.9883 39.3563,-83.0123 49.4876,-175.05 27.4556,-249.4182 -34.085,-115.0518 -95.3868,-169.4925 -381.52342,-338.822 C 755.53994,1303.4761 717.6627,1259.792 717.20203,1161.2718 c -0.44275,-94.687 54.879,-174.66061 141.8155,-205.00978 29.35206,-10.24667 58.31055,-13.09592 121.50387,-11.95489 98.7279,1.78266 174.3025,19.37502 252.5834,58.79657 29.9379,15.0766 55.796,26.0486 57.4624,24.3823 1.6663,-1.6662 3.864,-39.66364 4.8838,-84.43854 l 1.8542,-81.40892 -48.4002,-18.23763 C 1179.4766,817.2397 1113.9612,805.07067 1010.6913,799.15436 842.46029,789.51651 727.58098,821.55912 641.42816,902.15089 565.57105,973.11153 524.20183,1068.719 524.20183,1173.0702 c 0,95.5055 33.58549,168.5995 111.37913,242.4007 52.76851,50.0604 77.24198,66.8919 235.66239,162.0763 158.95265,95.5041 188.85995,116.2927 220.52895,153.2908 85.0704,99.3857 39.3067,252.3493 -93.89959,313.8567 -44.08801,20.3574 -53.78763,21.9026 -134.25963,21.3869 -100.33245,-0.6428 -172.3747,-17.4473 -256.56868,-59.8467 -28.76286,-14.4847 -55.2606,-26.3359 -58.88388,-26.3359 -3.62328,0 -10.69448,29.6985 -15.71379,65.9966 -5.0193,36.2982 -10.87115,73.1489 -13.0041,81.8905 -3.36641,13.7966 2.9115,18.4052 47.581,34.9288 48.54597,17.9574 136.98621,39.6474 187.2236,45.9167 62.64453,7.8177 207.28773,4.0055 252.67287,-6.6594 z m 1342.0474,3.9828 c 99.6789,-8.8223 162.7728,-21.9007 240.9866,-49.9529 l 55.6832,-19.9714 -5.216,-75.734 c -2.8689,-41.6537 -6.7669,-78.2432 -8.6623,-81.31 -1.8953,-3.0667 -26.2637,4.7701 -54.1518,17.4152 -118.0182,53.512 -319.3754,81.3849 -433.5834,60.0189 -205.3238,-38.412 -368.2686,-204.9481 -416.9354,-426.1248 -20.1115,-91.4015 -13.0638,-251.8894 14.6232,-332.9908 30.0649,-88.0666 62.399,-144.1469 115.8243,-200.8856 59.0922,-62.757 123.6248,-105.06321 201.559,-132.13767 56.0627,-19.47625 68.3594,-20.91618 173.4769,-20.31414 133.6602,0.76541 221.7169,16.61886 327.5914,58.97851 38.3025,15.3246 70.8474,26.6563 72.322,25.1817 1.4747,-1.4746 5.0436,-36.98197 7.931,-78.90522 l 5.2499,-76.22407 -43.3167,-16.20681 c -82.8471,-30.99708 -151.6093,-46.26892 -245.3268,-54.48622 -208.3514,-18.26862 -366.7676,14.14153 -512.8881,104.93102 -61.8861,38.45183 -157.1805,128.454 -194.7937,183.9754 -41.9847,61.9742 -85.0657,156.8733 -105.129,231.5786 -16.9235,63.014 -19.4669,87.4601 -19.3204,185.7038 0.1847,123.8966 8.7008,172.9572 47.476,273.5046 73.5193,190.6419 249.1168,345.1167 457.2007,402.2037 102.1311,28.0192 184.9021,33.6562 319.3994,21.7522 z"
       id="path3"
       transform="translate(-1280,-1280)" />
  </g>
</svg>
